<?xml version="1.0" standalone="no"?>
<!DOCTYPE svg PUBLIC "-//W3C//DTD SVG 20010904//EN"
 "http://www.w3.org/TR/2001/REC-SVG-20010904/DTD/svg10.dtd">
<svg version="1.0" xmlns="http://www.w3.org/2000/svg"
 width="383.000000pt" height="187.000000pt" viewBox="0 0 383.000000 187.000000"
 preserveAspectRatio="xMidYMid meet">

<g transform="translate(0.000000,187.000000) scale(0.100000,-0.100000)"
fill="#000000" stroke="none">
<path d="M320 1600 l-35 -7 33 -2 32 -1 0 -169 0 -170 -32 -4 c-32 -4 -32 -4
5 -5 l37 -2 0 185 c0 102 -1 184 -2 184 -2 -1 -19 -5 -38 -9z"/>
<path d="M3180 1600 c-1 -3 -1 -84 -2 -180 0 -170 -1 -172 -9 -72 -9 118 -32
179 -82 214 -29 21 -46 23 -162 26 -153 3 -184 -7 -225 -79 -21 -38 -25 -60
-28 -151 l-4 -108 51 0 51 0 0 45 0 45 150 0 150 0 0 -44 0 -44 101 -7 c55 -4
103 -4 106 -1 4 3 -15 6 -40 6 l-47 0 0 169 0 170 48 3 47 3 -53 5 c-28 3 -52
3 -52 0z m-149 -109 c16 -16 29 -34 29 -40 0 -7 -45 -11 -135 -11 -74 0 -138
1 -142 3 -14 4 -2 32 23 55 22 19 36 22 110 22 81 0 87 -1 115 -29z"/>
<path d="M462 1569 c-103 -51 -114 -223 -18 -292 29 -21 43 -22 229 -25 l197
-3 0 45 0 46 -168 0 c-181 0 -203 6 -222 56 -13 33 7 83 37 95 13 5 98 9 189
9 l164 0 0 45 0 45 -182 0 c-166 0 -187 -2 -226 -21z"/>
<path d="M1010 1571 c-89 -47 -115 -165 -57 -252 41 -62 70 -69 270 -69 l177
0 0 45 0 45 -163 0 c-131 0 -167 3 -185 16 -12 8 -22 19 -22 25 0 5 74 9 180
9 l180 0 0 35 0 35 -182 0 -183 1 24 19 c21 18 39 20 187 20 l164 0 0 45 0 45
-178 0 c-153 0 -182 -2 -212 -19z"/>
<path d="M1475 1461 c3 -140 15 -179 62 -200 14 -7 91 -11 188 -11 l165 0 0
45 0 45 -139 0 c-114 0 -143 3 -155 16 -13 12 -16 39 -16 125 l0 109 -54 0
-54 0 3 -129z"/>
<path d="M1950 1420 l0 -170 55 0 55 0 0 170 0 170 -55 0 -55 0 0 -170z"/>
<path d="M2232 1582 c-29 -9 -81 -59 -93 -91 -15 -38 -13 -112 4 -153 8 -19
30 -46 48 -59 33 -23 42 -24 232 -27 l197 -3 0 45 0 46 -169 0 c-162 0 -171 1
-195 23 -36 32 -39 84 -6 117 18 18 33 20 195 20 l175 0 0 45 0 45 -182 -1
c-101 -1 -193 -4 -206 -7z"/>
<path d="M107 1474 c-4 -4 -7 -12 -7 -18 0 -6 4 -5 9 3 5 8 14 10 21 6 10 -6
9 -11 -4 -20 -16 -12 -15 -13 0 -19 14 -5 15 -9 5 -19 -9 -9 -14 -9 -21 3 -8
13 -10 12 -10 -3 0 -14 6 -18 28 -15 24 3 27 7 27 43 0 33 -4 41 -20 43 -12 2
-24 0 -28 -4z"/>
<path d="M3227 1474 c-4 -4 -7 -12 -7 -18 0 -6 4 -5 9 3 5 8 14 10 21 6 10 -6
9 -11 -4 -20 -16 -12 -15 -13 0 -19 14 -5 15 -9 5 -19 -9 -9 -14 -9 -21 3 -8
13 -10 12 -10 -3 0 -14 6 -18 28 -15 24 3 27 7 27 43 0 33 -4 41 -20 43 -12 2
-24 0 -28 -4z"/>
<path d="M184 1435 c-9 -23 3 -45 26 -45 13 0 20 6 19 18 0 10 -3 12 -6 5 -8
-21 -23 -15 -23 8 0 15 5 19 15 15 8 -3 15 -1 15 4 0 16 -40 11 -46 -5z"/>
<path d="M240 1420 c0 -39 27 -41 33 -2 l4 27 2 -27 c2 -38 21 -36 21 2 0 27
-3 30 -30 30 -27 0 -30 -3 -30 -30z"/>
<path d="M310 1421 c0 -21 5 -31 16 -31 11 0 14 8 12 27 -4 39 -28 42 -28 4z"/>
<path d="M3344 1435 c-9 -23 3 -45 26 -45 13 0 20 6 19 18 0 10 -3 12 -6 5 -8
-21 -23 -15 -23 8 0 15 5 19 15 15 8 -3 15 -1 15 4 0 16 -40 11 -46 -5z"/>
<path d="M3400 1420 c0 -39 27 -41 33 -2 l4 27 2 -27 c2 -38 21 -36 21 2 0 27
-3 30 -30 30 -27 0 -30 -3 -30 -30z"/>
<path d="M3470 1421 c0 -21 5 -31 16 -31 11 0 14 8 12 27 -4 39 -28 42 -28 4z"/>
<path d="M350 1155 c-3 -16 -2 -46 1 -65 l6 -35 2 33 1 32 1409 0 1410 0 4
-37 c2 -21 4 -6 4 32 0 39 -2 58 -4 43 l-4 -28 -1409 0 -1409 0 -3 28 -3 27
-5 -30z"/>
<path d="M1656 1094 c-11 -8 -14 -14 -8 -14 7 0 12 -13 12 -30 0 -16 4 -30 9
-30 13 0 18 21 11 57 -5 29 -6 31 -24 17z"/>
<path d="M1720 1100 c0 -5 9 -10 20 -10 19 0 20 -2 5 -30 -18 -36 -19 -40 -1
-40 7 0 16 12 19 28 3 15 9 35 12 45 6 14 2 17 -24 17 -17 0 -31 -4 -31 -10z"/>
<path d="M1844 1065 c-9 -23 3 -45 26 -45 13 0 20 6 19 18 0 10 -3 12 -6 5 -8
-21 -23 -15 -23 8 0 15 5 19 15 15 8 -3 15 -1 15 4 0 16 -40 11 -46 -5z"/>
<path d="M1900 1050 c0 -39 27 -41 33 -2 l4 27 2 -27 c1 -34 18 -37 24 -5 l4
22 2 -22 c0 -14 7 -23 17 -23 11 0 14 8 12 28 -3 25 -7 27 -50 30 -47 3 -48 3
-48 -28z"/>
<path d="M1003 773 l57 -4 0 -244 0 -244 -57 -4 -58 -3 63 -2 62 -2 0 255 0
255 -62 -2 -63 -2 58 -3z"/>
<path d="M1245 766 c-17 -7 -43 -28 -58 -46 -46 -55 -60 -97 -60 -190 0 -72 4
-94 27 -142 47 -100 55 -102 304 -106 l212 -3 0 150 0 151 -140 0 -140 0 0
-60 0 -60 50 0 c38 0 50 -4 50 -15 0 -12 -14 -15 -70 -15 -57 0 -73 4 -88 21
-36 38 -38 113 -4 152 14 15 41 17 299 17 l283 0 0 -170 0 -170 90 0 90 0 0
170 0 170 110 0 110 0 0 80 0 80 -517 0 c-408 -1 -524 -4 -548 -14z m357 -26
l58 0 0 -40 0 -40 -159 0 c-151 0 -161 -1 -186 -22 -51 -45 -53 -161 -4 -214
21 -22 30 -24 116 -24 l93 0 0 45 0 45 -50 0 c-49 0 -50 1 -50 30 l0 30 110 0
110 0 0 -121 0 -121 -189 4 c-217 3 -227 7 -270 91 -27 54 -33 167 -13 228 15
42 68 96 108 109 16 5 83 8 148 5 66 -3 145 -5 178 -5z m678 -35 l0 -45 -110
0 -110 0 0 -175 0 -175 -60 0 -60 0 0 175 0 175 -125 0 -125 0 0 45 0 45 295
0 295 0 0 -45z"/>
<path d="M2370 525 l0 -255 58 2 57 2 -52 3 -53 4 0 244 0 244 58 4 57 3 -62
2 -63 2 0 -255z"/>
<path d="M807 594 c-4 -4 -7 -12 -7 -18 0 -6 4 -5 9 3 5 8 14 10 21 6 10 -6 9
-11 -4 -20 -16 -12 -15 -13 0 -19 14 -5 15 -9 5 -19 -9 -9 -14 -9 -21 3 -8 13
-10 12 -10 -3 0 -14 6 -18 28 -15 24 3 27 7 27 43 0 33 -4 41 -20 43 -12 2
-24 0 -28 -4z"/>
<path d="M884 555 c-9 -23 3 -45 26 -45 13 0 20 6 19 18 0 10 -3 12 -6 5 -8
-21 -23 -15 -23 8 0 15 5 19 15 15 8 -3 15 -1 15 4 0 16 -40 11 -46 -5z"/>
<path d="M940 540 c0 -39 27 -41 33 -2 l4 27 2 -27 c2 -38 21 -36 21 2 0 27
-3 30 -30 30 -27 0 -30 -3 -30 -30z"/>
<path d="M1010 541 c0 -21 5 -31 16 -31 11 0 14 8 12 27 -4 39 -28 42 -28 4z"/>
<path d="M2417 554 c-4 -4 -7 -12 -7 -18 0 -6 4 -5 9 3 5 8 14 10 21 6 10 -6
9 -11 -4 -20 -16 -12 -15 -13 0 -19 14 -5 15 -9 5 -19 -9 -9 -14 -9 -21 3 -8
13 -10 12 -10 -3 0 -14 6 -18 28 -15 24 3 27 7 27 43 0 33 -4 41 -20 43 -12 2
-24 0 -28 -4z"/>
<path d="M2494 515 c-9 -23 3 -45 26 -45 13 0 20 6 19 18 0 10 -3 12 -6 5 -8
-21 -23 -15 -23 8 0 15 5 19 15 15 8 -3 15 -1 15 4 0 16 -40 11 -46 -5z"/>
<path d="M2550 500 c0 -39 27 -41 33 -2 l4 27 2 -27 c2 -38 21 -36 21 2 0 27
-3 30 -30 30 -27 0 -30 -3 -30 -30z"/>
<path d="M2620 501 c0 -21 5 -31 16 -31 11 0 14 8 12 27 -4 39 -28 42 -28 4z"/>
<path d="M1062 188 l2 -63 3 58 4 57 649 0 649 0 4 -57 3 -58 2 63 2 62 -660
0 -660 0 2 -62z"/>
<path d="M1586 195 c-11 -8 -14 -15 -8 -15 7 0 12 -13 12 -30 0 -16 5 -30 10
-30 6 0 10 20 10 45 0 25 -1 45 -2 45 -2 0 -12 -7 -22 -15z"/>
<path d="M1654 196 c-3 -8 -4 -27 -2 -43 2 -20 9 -29 25 -31 30 -4 50 36 34
67 -13 24 -49 28 -57 7z m36 -31 c0 -19 -4 -35 -10 -35 -5 0 -10 16 -10 35 0
19 5 35 10 35 6 0 10 -16 10 -35z"/>
<path d="M1734 165 c-9 -23 3 -45 26 -45 13 0 20 6 19 18 0 10 -3 12 -6 5 -8
-21 -23 -15 -23 8 0 15 5 19 15 15 8 -3 15 -1 15 4 0 16 -40 11 -46 -5z"/>
<path d="M1790 150 c0 -39 27 -41 33 -2 l4 27 2 -27 c1 -34 18 -37 24 -5 l4
22 2 -22 c0 -14 7 -23 17 -23 11 0 14 8 12 28 -3 25 -7 27 -50 30 -47 3 -48 3
-48 -28z"/>
</g>
</svg>
